<svg width="81" height="80" viewBox="0 0 81 80" fill="none" xmlns="http://www.w3.org/2000/svg">
    <path
        d="M75.0914 7.05988C74.8361 7.05988 74.5912 7.1613 74.4107 7.34185C74.2302 7.52239 74.1287 7.76726 74.1287 8.02259V30.4858C74.1287 30.7412 74.2302 30.986 74.4107 31.1666C74.5912 31.3471 74.8361 31.4485 75.0914 31.4485C75.3468 31.4485 75.5916 31.3471 75.7722 31.1666C75.9527 30.986 76.0542 30.7412 76.0542 30.4858V8.02259C76.0542 7.76726 75.9527 7.52239 75.7722 7.34185C75.5916 7.1613 75.3468 7.05988 75.0914 7.05988ZM5.13445 7.05988C4.87912 7.05988 4.63425 7.1613 4.45371 7.34185C4.27317 7.52239 4.17174 7.76726 4.17174 8.02259V30.4858C4.17174 30.7412 4.27317 30.986 4.45371 31.1666C4.63425 31.3471 4.87912 31.4485 5.13445 31.4485C5.38978 31.4485 5.63464 31.3471 5.81519 31.1666C5.99573 30.986 6.09716 30.7412 6.09716 30.4858V8.02259C6.09716 7.76726 5.99573 7.52239 5.81519 7.34185C5.63464 7.1613 5.38978 7.05988 5.13445 7.05988Z"
        fill="#D2D2D2" />
    <path
        d="M75.0914 10.2689C77.9271 10.2689 80.2259 7.97014 80.2259 5.13446C80.2259 2.29877 77.9271 0 75.0914 0C72.2558 0 69.957 2.29877 69.957 5.13446C69.957 7.97014 72.2558 10.2689 75.0914 10.2689Z"
        fill="white" />
    <path
        d="M5.13446 10.2689C7.97014 10.2689 10.2689 7.97014 10.2689 5.13446C10.2689 2.29877 7.97014 0 5.13446 0C2.29877 0 0 2.29877 0 5.13446C0 7.97014 2.29877 10.2689 5.13446 10.2689Z"
        fill="white" />
    <path
        d="M6.49445 40.7317C6.50689 36.0713 7.7703 31.4998 10.1527 27.4944C7.56862 27.6399 5.11668 28.6843 3.22123 30.4467C0.525638 33.1301 0.410112 36.6382 0.239392 41.72C0.0635365 46.929 -0.0513472 50.3607 2.42539 53.0576C4.8373 55.825 8.15608 55.9958 11.3253 55.8173C8.20105 51.4057 6.51403 46.1375 6.49445 40.7317ZM79.9897 41.7175C79.819 36.6356 79.7009 33.1275 77.0079 30.4441C75.1124 28.6817 72.6605 27.6374 70.0764 27.4918C72.6551 31.8153 73.9175 36.7966 73.7093 41.8264C73.501 46.8561 71.8311 51.7161 68.9038 55.8116C72.0794 55.9919 75.3514 55.7923 77.8037 53.0518C80.2471 50.3293 80.1656 46.9283 79.9897 41.7175Z"
        fill="#028464" />
    <path
        d="M73.7314 40.7316C73.7314 24.6037 58.6798 11.5294 40.1129 11.5294C21.5461 11.5294 6.49445 24.6037 6.49445 40.7316C6.49445 53.5113 15.9489 64.3662 29.1104 68.3255C28.1862 70.1867 26.7127 71.885 24.7577 74.1858C24.272 74.7581 23.9814 75.4703 23.928 76.219C23.8746 76.9677 24.0613 77.714 24.4609 78.3494C24.8605 78.9847 25.4523 79.4762 26.1502 79.7524C26.8482 80.0285 27.616 80.075 28.3422 79.8851C34.9793 78.131 40.9875 74.5414 45.6774 69.5282C61.5949 67.2242 73.7314 55.2121 73.7314 40.7316Z"
        fill="#19B890" />
    <path
        d="M40.1129 16.343C23.5081 16.343 11.6924 30.7625 13.4401 47.1208C13.7498 50.1147 15.1557 52.8882 17.3874 54.9078C19.619 56.9274 22.5187 58.0503 25.5285 58.0605C32.8207 58.0399 32.8207 53.9908 40.1129 53.9908C47.4052 53.9908 47.4052 58.0399 54.6974 58.0605C57.7072 58.0503 60.6069 56.9274 62.8385 54.9078C65.0702 52.8882 66.4761 50.1147 66.7858 47.1208C68.5335 30.7625 56.7178 16.343 40.1129 16.343Z"
        fill="white" />
    <path
        d="M24.526 42.1295C26.2983 42.1295 27.7351 40.6928 27.7351 38.9205C27.7351 37.1482 26.2983 35.7114 24.526 35.7114C22.7537 35.7114 21.317 37.1482 21.317 38.9205C21.317 40.6928 22.7537 42.1295 24.526 42.1295Z"
        fill="#19B890" />
    <path
        d="M40.1129 42.1295C41.8852 42.1295 43.322 40.6928 43.322 38.9205C43.322 37.1482 41.8852 35.7114 40.1129 35.7114C38.3406 35.7114 36.9039 37.1482 36.9039 38.9205C36.9039 40.6928 38.3406 42.1295 40.1129 42.1295Z"
        fill="#19B890" />
    <path
        d="M55.6999 42.1295C57.4722 42.1295 58.9089 40.6928 58.9089 38.9205C58.9089 37.1482 57.4722 35.7114 55.6999 35.7114C53.9276 35.7114 52.4908 37.1482 52.4908 38.9205C52.4908 40.6928 53.9276 42.1295 55.6999 42.1295Z"
        fill="#19B890" />
</svg>